<!-- icon666.com - MILLIONS OF FREE VECTOR ICONS --><svg viewBox="0 -1 427.588 427" xmlns="http://www.w3.org/2000/svg"><path d="m251.25 244.609375c-.851562-5.125-5.542969-8.703125-10.710938-8.167969-5.167968.535156-9.027343 4.996094-8.8125 10.1875.210938 5.191406 4.425782 9.320313 9.621094 9.425782 5.191406.109374 9.574219-3.839844 10.003906-9.019532-.066406-.359375-.101562-.730468-.101562-1.097656zm0 0"></path><path d="m173.238281 226.328125c-5.433593 0-9.84375 4.410156-9.84375 9.84375 0 5.4375 4.410157 9.84375 9.84375 9.84375 5.4375 0 9.84375-4.40625 9.84375-9.84375-.007812-5.433594-4.410156-9.835937-9.84375-9.84375zm0 0"></path><path d="m72.679688 129.257812c.027343-25.511718 20.703124-46.191406 46.21875-46.21875h179.769531v-2.191406c-.015625-18.890625-15.324219-34.207031-34.21875-34.230468h-75.488281c-4.515626 0-8.820313-1.898438-11.859376-5.230469l-27.378906-29.953125c-6.488281-7.089844-15.652344-11.128906-25.261718-11.140625h-90.242188c-18.890625.023437-34.1953125 15.332031-34.21875 34.222656v263.570313c.0234375 18.886718 15.328125 34.195312 34.21875 34.21875h4.230469c18.894531-.019532 34.207031-15.328126 34.230469-34.21875zm0 0"></path><path d="m251.25 166.878906c.007812-.269531-.113281-.523437-.324219-.6875-.203125-.175781-.476562-.242187-.738281-.183594l-54.394531 11.019532c-.414063.082031-.710938.449218-.710938.871094v16.097656l56.167969-11.378906zm0 0"></path><path d="m343.589844 246.222656c1.476562 0 2.945312.039063 4.410156.105469v-117.070313c-.023438-18.890624-15.335938-34.199218-34.230469-34.21875h-194.875c-18.890625.023438-34.195312 15.332032-34.214843 34.21875v168.832032c.003906 13.039062-5.515626 25.472656-15.1875 34.21875h178.605468c5.140625-48.886719 46.332032-86.023438 95.492188-86.085938zm-102.035156 21.851563c-9.019532.003906-17.113282-5.53125-20.378907-13.9375-3.261719-8.40625-1.027343-17.953125 5.632813-24.035157 6.65625-6.078124 16.367187-7.445312 24.445312-3.433593v-31.808594l-56.167968 11.378906v29.929688c.007812 9.789062-6.484376 18.390625-15.898438 21.0625-9.417969 2.671875-19.460938-1.238281-24.59375-9.570313-5.128906-8.335937-4.097656-19.0625 2.527344-26.269531 6.625-7.203125 17.230468-9.128906 25.964844-4.710937v-38.78125c.011718-6.128907 4.328124-11.402344 10.328124-12.632813l54.390626-11.019531c3.792968-.765625 7.726562.210937 10.71875 2.65625 2.992187 2.449218 4.730468 6.109375 4.730468 9.976562v76.867188c.714844 6.1875-1.246094 12.386718-5.390625 17.035156-4.148437 4.644531-10.082031 7.300781-16.308593 7.292969zm0 0"></path><path d="m343.589844 258.222656c-46.394532 0-84 37.609375-84 84 0 46.394532 37.605468 84 84 84 46.390625 0 84-37.605468 84-84-.058594-46.367187-37.632813-83.945312-84-84zm50 90h-44v44c0 3.316406-2.6875 6-6 6-3.316406 0-6-2.683594-6-6v-44h-44c-3.316406 0-6-2.683594-6-6 0-3.3125 2.683594-6 6-6h44v-44c0-3.3125 2.683594-6 6-6 3.3125 0 6 2.6875 6 6v44h44c3.3125 0 6 2.6875 6 6 0 3.316406-2.6875 6-6 6zm0 0"></path></svg>