<?xml version="1.0" standalone="no"?>
<!DOCTYPE svg PUBLIC "-//W3C//DTD SVG 20010904//EN"
 "http://www.w3.org/TR/2001/REC-SVG-20010904/DTD/svg10.dtd">
<svg version="1.0" xmlns="http://www.w3.org/2000/svg"
 width="64.000000pt" height="64.000000pt" viewBox="0 0 64.000000 64.000000"
 preserveAspectRatio="xMidYMid meet">
<metadata>
Created by potrace 1.16, written by Peter Selinger 2001-2019
</metadata>
<g transform="translate(0.000000,64.000000) scale(0.100000,-0.100000)"
fill="#000000" stroke="none">
<path d="M0 320 l0 -320 320 0 320 0 0 320 0 320 -320 0 -320 0 0 -320z m386
239 c4 -7 24 -9 55 -6 53 7 65 -1 71 -48 3 -27 0 -30 -29 -33 -34 -3 -46 14
-18 24 25 10 18 37 -7 31 -13 -3 -85 -18 -160 -33 -96 -19 -138 -31 -138 -40
0 -18 3 -18 145 10 118 23 147 24 126 3 -11 -11 -288 -67 -296 -59 -3 3 -5 22
-5 43 0 38 12 49 51 49 10 0 31 13 45 29 15 17 38 32 53 34 54 8 100 7 107 -4z
m122 -294 c1 -82 0 -160 -3 -173 -5 -22 -6 -22 -173 -20 l-167 3 -3 153 c-2
121 0 153 10 150 10 -4 14 -42 16 -147 l3 -142 142 3 142 3 3 148 3 147 -106
0 c-88 0 -105 3 -105 15 0 13 17 15 118 13 l117 -3 3 -150z m-240 -23 c2 -86
0 -102 -13 -102 -12 0 -15 17 -15 106 0 80 3 105 13 102 8 -3 13 -36 15 -106z
m80 0 c2 -86 0 -102 -13 -102 -12 0 -15 17 -15 106 0 80 3 105 13 102 8 -3 13
-36 15 -106z m80 0 c2 -86 0 -102 -13 -102 -12 0 -15 17 -15 106 0 80 3 105
13 102 8 -3 13 -36 15 -106z"/>
<path d="M280 530 c-20 -6 -21 -8 -5 -8 11 0 34 4 50 8 27 7 27 8 5 8 -14 0
-36 -4 -50 -8z"/>
</g>
</svg>
