<!-- icon666.com - MILLIONS OF FREE VECTOR ICONS --><svg id="Capa_1" enable-background="new 0 0 512 512" viewBox="0 0 512 512" xmlns="http://www.w3.org/2000/svg"><g><path d="m386.079 158.088c-1.424-1.759-3.566-2.78-5.829-2.78h-19.604c-10.557 0-19.813 7.495-22.008 17.821l-12.747 59.948-12.741-59.946c-2.194-10.328-11.45-17.823-22.008-17.823h-19.612c-2.263 0-4.405 1.021-5.829 2.78s-1.978 4.065-1.507 6.279l5.604 26.362c.861 4.053 4.844 6.644 8.896 5.776 4.051-.861 6.638-4.844 5.776-8.896l-3.678-17.303h10.352c3.519 0 6.604 2.498 7.336 5.941l20.075 94.458c.736 3.462 3.794 5.94 7.336 5.94 3.541 0 6.6-2.477 7.336-5.94l20.084-94.459c.732-3.442 3.817-5.94 7.336-5.94h10.343l-36.422 171.38h-17.343l-25.541-120.149c-.861-4.051-4.839-6.637-8.896-5.776-4.052.861-6.638 4.844-5.776 8.896l26.804 126.09c.736 3.464 3.795 5.94 7.336 5.94h29.49c3.542 0 6.6-2.477 7.336-5.94l39.61-186.38c.469-2.214-.086-4.521-1.509-6.279z"></path><path d="m186.109 201.375c4.471 0 11.632 4.501 14.523 10.524 3.724 7.759 11.689 12.772 20.292 12.772h19.544c4.142 0 7.5-3.357 7.5-7.5 0-34.109-27.75-61.859-61.859-61.859s-61.859 27.75-61.859 61.859 27.75 61.859 61.859 61.859c8.71 0 15.797 7.087 15.797 15.797s-7.086 15.797-15.797 15.797c-4.471 0-11.631-4.501-14.523-10.526-3.725-7.758-11.689-12.771-20.292-12.771h-19.544c-4.142 0-7.5 3.357-7.5 7.5 0 34.109 27.75 61.859 61.859 61.859s61.859-27.75 61.859-61.859-27.75-61.859-61.859-61.859c-8.71 0-15.797-7.087-15.797-15.797s7.087-15.796 15.797-15.796zm0 46.594c25.838 0 46.859 21.021 46.859 46.859s-21.021 46.859-46.859 46.859c-23.287 0-42.66-17.072-46.26-39.359h11.445c2.869 0 5.526 1.673 6.769 4.262 5.208 10.852 17.266 19.035 28.046 19.035 16.981 0 30.797-13.815 30.797-30.797s-13.815-30.797-30.797-30.797c-25.838 0-46.859-21.021-46.859-46.859s21.021-46.859 46.859-46.859c23.287 0 42.66 17.072 46.26 39.359h-11.445c-2.869 0-5.526-1.673-6.769-4.264-5.208-10.851-17.266-19.033-28.046-19.033-16.981 0-30.797 13.815-30.797 30.797s13.816 30.797 30.797 30.797z"></path><path d="m256 77.656c-69.171 0-144.035 19.818-197.172 64.425-3.172 2.663-3.585 7.394-.922 10.566 2.649 3.157 7.379 3.597 10.566.922 6.763-5.677 14.015-11.009 21.729-15.982-7.84 9.389-14.754 19.427-20.593 29.954-15.271 27.533-23.014 57.295-23.014 88.459s7.744 60.926 23.016 88.459c5.833 10.516 12.738 20.545 20.569 29.926-47.333-30.52-75.179-73.209-75.179-118.385 0-27.503 10.352-54.726 29.937-78.726 2.619-3.21 2.14-7.935-1.069-10.553-3.21-2.62-7.934-2.142-10.553 1.068-21.795 26.71-33.315 57.213-33.315 88.211 0 101.463 118.364 178.344 256 178.344 138.002 0 256-77.165 256-178.344 0-101.334-118.193-178.344-256-178.344zm-117.328 320.976c-49-34.168-77.079-86.104-77.079-142.632s28.078-108.464 77.078-142.632c35.686-13.552 76.234-20.712 117.329-20.712s81.643 7.16 117.328 20.712c49 34.168 77.078 86.104 77.078 142.632s-28.079 108.464-77.079 142.632c-35.687 13.552-76.235 20.712-117.327 20.712s-81.64-7.16-117.328-20.712zm283.149-24.247c7.831-9.381 14.737-19.41 20.569-29.926 15.272-27.533 23.016-57.295 23.016-88.459s-7.744-60.926-23.015-88.459c-5.833-10.516-12.738-20.544-20.569-29.925 47.333 30.519 75.178 73.208 75.178 118.384 0 45.177-27.846 87.866-75.179 118.385z"></path></g></svg>