<!-- icon666.com - MILLIONS OF FREE VECTOR ICONS --><svg clip-rule="evenodd" fill-rule="evenodd" stroke-linejoin="round" stroke-miterlimit="2" viewBox="0 0 64 64" xmlns="http://www.w3.org/2000/svg"><g transform="translate(-207 -690)"><g transform="matrix(0 1.304 -1.538 0 1346.86 410.342)"><g id="ICON"><path d="m234.986 705.378-14.726 22.09c-.807 1.21-.795 2.693.031 3.893.827 1.201 2.343 1.939 3.983 1.939h29.452c1.64 0 3.156-.738 3.983-1.939.826-1.2.838-2.683.031-3.893-3.807-5.711-10.872-16.308-14.726-22.09-.818-1.227-2.352-1.985-4.014-1.985s-3.196.758-4.014 1.985zm2.671 1.28c.273-.411.787-.665 1.343-.665s1.07.254 1.343.665c0 0 14.727 22.09 14.727 22.09.27.405.266.901-.011 1.303-.276.402-.784.649-1.333.649h-29.452c-.549 0-1.057-.247-1.333-.649-.277-.402-.281-.898-.011-1.303z" fill="currentColor"></path></g></g></g></svg>