<!-- icon666.com - MILLIONS OF FREE VECTOR ICONS --><svg fill="none" viewBox="0 0 24 24" xmlns="http://www.w3.org/2000/svg"><g clip-rule="evenodd" fill="rgb(0,0,0)" fill-rule="evenodd"><path d="m20 10c.5523 0 1-.44772 1-1v-5c0-.34658-.1795-.66844-.4743-.85065s-.6629-.19877-.9729-.04378l-2 1c-.494.24699-.6942.84767-.4472 1.34164.247.49398.8476.69421 1.3416.44722l.5528-.2764v3.38197c0 .55228.4477 1 1 1z"></path><path d="m15 7c0-.55228-.4477-1-1-1h-6c-.55228 0-1 .44772-1 1s.44772 1 1 1h6c.5523 0 1-.44772 1-1z"></path><path d="m7.70711 20.7071c.39052-.3905.39052-1.0237 0-1.4142l-1.2929-1.2929h9.58579c.5523 0 1-.4477 1-1s-.4477-1-1-1h-9.58579l1.2929-1.2929c.39052-.3905.39052-1.0237 0-1.4142-.39053-.3905-1.02369-.3905-1.41422 0l-3 3c-.18753.1875-.29289.4419-.29289.7071s.10536.5196.29289.7071l3 3c.39053.3905 1.02369.3905 1.41422 0z"></path><path d="m9 7c0-.55228-.44772-1-1-1-2.76142 0-5 2.23858-5 5 0 .5523.44772 1 1 1s1-.4477 1-1c0-1.65685 1.34315-3 3-3 .55228 0 1-.44772 1-1z"></path><path d="m15 17c0 .5523.4477 1 1 1 2.7614 0 5-2.2386 5-5 0-.5523-.4477-1-1-1s-1 .4477-1 1c0 1.6569-1.3431 3-3 3-.5523 0-1 .4477-1 1z"></path></g></svg>