<!-- icon666.com - MILLIONS OF FREE VECTOR ICONS --><svg fill="none" viewBox="0 0 24 24" xmlns="http://www.w3.org/2000/svg"><g clip-rule="evenodd" fill="rgb(0,0,0)" fill-rule="evenodd"><path d="m16.2929 3.29289c-.3905.39053-.3905 1.02369 0 1.41422l1.2929 1.29289h-9.5858c-.55229 0-1 .44772-1 1s.44771 1 1 1h9.5858l-1.2929 1.29289c-.3905.39053-.3905 1.02371 0 1.41421s1.0237.3905 1.4142 0l3-2.99999c.3905-.39053.3905-1.02369 0-1.41422l-3-3c-.3905-.39052-1.0237-.39052-1.4142 0z"></path><path d="m7.70711 20.7071c.39052-.3905.39052-1.0237 0-1.4142l-1.2929-1.2929h9.58579c.5523 0 1-.4477 1-1s-.4477-1-1-1h-9.58579l1.2929-1.2929c.39052-.3905.39052-1.0237 0-1.4142-.39053-.3905-1.02369-.3905-1.41422 0l-3 3c-.39052.3905-.39052 1.0237 0 1.4142l3 3c.39053.3905 1.02369.3905 1.41422 0z"></path><path d="m9 7c0-.55228-.44772-1-1-1-2.76142 0-5 2.23858-5 5 0 .5523.44772 1 1 1s1-.4477 1-1c0-1.65685 1.34315-3 3-3 .55228 0 1-.44772 1-1z"></path><path d="m15 17c0 .5523.4477 1 1 1 2.7614 0 5-2.2386 5-5 0-.5523-.4477-1-1-1s-1 .4477-1 1c0 1.6569-1.3431 3-3 3-.5523 0-1 .4477-1 1z"></path></g></svg>