<!-- icon666.com - MILLIONS OF FREE VECTOR ICONS --><svg id="Layer_1" viewBox="0 0 24 24" xmlns="http://www.w3.org/2000/svg" data-name="Layer 1"><path d="m23.706 5.292-3-3a1 1 0 0 0 -1.414 1.414l1.294 1.294h-3.586a7.008 7.008 0 0 0 -7 7 5.006 5.006 0 0 1 -5 5h-4a1 1 0 0 0 0 2h4a7.008 7.008 0 0 0 7-7 5.006 5.006 0 0 1 5-5h3.586l-1.293 1.293a1 1 0 0 0 0 1.414 1.012 1.012 0 0 0 1.414 0l3-3a1.015 1.015 0 0 0 .217-1.09 1 1 0 0 0 -.218-.325z"></path><path d="m1 7h4a4.933 4.933 0 0 1 2.779.848 1 1 0 1 0 1.121-1.656 6.925 6.925 0 0 0 -3.9-1.192h-4a1 1 0 0 0 0 2z"></path><path d="m23.706 17.292-3-3a1 1 0 0 0 -1.414 1.414l1.294 1.294h-3.586a4.933 4.933 0 0 1 -2.779-.848 1 1 0 1 0 -1.121 1.656 6.925 6.925 0 0 0 3.9 1.192h3.586l-1.293 1.293a1 1 0 1 0 1.414 1.414l3-3a1.014 1.014 0 0 0 .217-1.09 1 1 0 0 0 -.218-.325z"></path></svg>