<!-- icon666.com - MILLIONS OF FREE VECTOR ICONS --><svg version="1.1" id="Layer_1" xmlns="http://www.w3.org/2000/svg" xmlns:xlink="http://www.w3.org/1999/xlink" x="0px" y="0px" viewBox="0 0 512 512" style="enable-background:new 0 0 512 512;" xml:space="preserve"><g><g><g><path d="M288,128h-64c-5.896,0-10.667,4.771-10.667,10.667v234.667c0,5.896,4.771,10.667,10.667,10.667h64 c5.896,0,10.667-4.771,10.667-10.667V138.667C298.667,132.771,293.896,128,288,128z M277.333,362.667h-42.667V149.333h42.667 V362.667z"></path><path d="M394.667,320h-64c-5.896,0-10.667,4.771-10.667,10.667v42.667c0,5.896,4.771,10.667,10.667,10.667h64 c5.896,0,10.667-4.771,10.667-10.667v-42.667C405.333,324.771,400.563,320,394.667,320z M384,362.667h-42.667v-21.333H384 V362.667z"></path><path d="M501.333,320h-64c-5.896,0-10.667,4.771-10.667,10.667v42.667c0,5.896,4.771,10.667,10.667,10.667h64 c5.896,0,10.667-4.771,10.667-10.667v-42.667C512,324.771,507.229,320,501.333,320z M490.667,362.667H448v-21.333h42.667V362.667 z"></path><path d="M181.333,192h-64c-5.896,0-10.667,4.771-10.667,10.667v170.667c0,5.896,4.771,10.667,10.667,10.667h64 c5.896,0,10.667-4.771,10.667-10.667V202.667C192,196.771,187.229,192,181.333,192z M170.667,362.667H128V213.333h42.667V362.667 z"></path><path d="M74.667,256h-64C4.771,256,0,260.771,0,266.667v106.667C0,379.229,4.771,384,10.667,384h64 c5.896,0,10.667-4.771,10.667-10.667V266.667C85.333,260.771,80.563,256,74.667,256z M64,362.667H21.333v-85.333H64V362.667z"></path></g></g></g></svg>